<svg id="visual" viewBox="0 0 540 960" width="540" height="960" xmlns="http://www.w3.org/2000/svg" xmlns:xlink="http://www.w3.org/1999/xlink" version="1.1"><rect x="0" y="0" width="540" height="960" fill="#001220"></rect><defs><linearGradient id="grad1_0" x1="10%" y1="0%" x2="90%" y2="100%"><stop offset="5%" stop-color="#001220" stop-opacity="1"></stop><stop offset="20%" stop-color="#001220" stop-opacity="1"></stop></linearGradient></defs><defs><linearGradient id="grad2_0" x1="0%" y1="0%" x2="100%" y2="100%"><stop offset="60%" stop-color="#001220" stop-opacity="1"></stop><stop offset="40%" stop-color="#001220" stop-opacity="1"></stop></linearGradient></defs><g transform="translate(50, 0)"><path d="M0 486C-66.6 482.4 -133.2 478.8 -186 449C-238.8 419.2 -277.7 363.3 -314 314C-350.2 264.6 -383.8 221.9 -412.1 170.7C-440.3 119.5 -463.1 59.7 -486 0L0 0Z" fill="#FBAE3C"></path></g><g transform="translate(0, 910)"><path d="M0 -486C63.9 -475.2 127.9 -464.4 181 -437C234.1 -409.6 276.4 -365.7 323.1 -323.1C369.9 -280.6 421.1 -239.6 449 -186C476.9 -132.4 481.4 -66.2 486 0L0 0Z" fill="#FBAE3C"></path></g></svg>