<svg id="visual" viewBox="0 0 540 960" width="540" height="960" xmlns="http://www.w3.org/2000/svg" xmlns:xlink="http://www.w3.org/1999/xlink" version="1.1"><g stroke-width="3" stroke-linejoin="bevel"><path d="M247.5 478L266.5 453L251.5 425Z" fill="#1d3a16" stroke="#603601"></path><path d="M251.5 425L224.5 412L247.5 478Z" fill="#3e5c17" stroke="#603601"></path><path d="M158.3 470L215.5 508L247.5 478Z" fill="#294917" stroke="#603601"></path><path d="M215.5 508L218.4 518L247.5 478Z" fill="#193615" stroke="#603601"></path><path d="M247.5 478L320.5 465L266.5 453Z" fill="#193615" stroke="#603601"></path><path d="M224.5 412L158.3 470L247.5 478Z" fill="#395717" stroke="#603601"></path><path d="M215.5 508L179.4 542L218.4 518Z" fill="#2e4e18" stroke="#603601"></path><path d="M331.6 541L320.5 465L247.5 478Z" fill="#1d3a16" stroke="#603601"></path><path d="M266.5 453L293.5 366L251.5 425Z" fill="#213f17" stroke="#603601"></path><path d="M224.5 412L160.4 404L158.3 470Z" fill="#254417" stroke="#603601"></path><path d="M224.5 412L161.4 397L160.4 404Z" fill="#153114" stroke="#603601"></path><path d="M320.5 465L293.5 366L266.5 453Z" fill="#2e4e18" stroke="#603601"></path><path d="M251.5 425L293.5 366L224.5 412Z" fill="#122c13" stroke="#603601"></path><path d="M224.5 412L169.4 341L161.4 397Z" fill="#3e5c17" stroke="#603601"></path><path d="M158.3 470L179.4 542L215.5 508Z" fill="#193615" stroke="#603601"></path><path d="M316.5 562L331.6 541L247.5 478Z" fill="#193615" stroke="#603601"></path><path d="M160.4 404L131.3 476L158.3 470Z" fill="#193615" stroke="#603601"></path><path d="M158.3 470L135.2 500L179.4 542Z" fill="#122c13" stroke="#603601"></path><path d="M99.2 406L131.3 476L160.4 404Z" fill="#1d3a16" stroke="#603601"></path><path d="M131.3 476L135.2 500L158.3 470Z" fill="#294917" stroke="#603601"></path><path d="M293.5 366L213.5 329L224.5 412Z" fill="#122c13" stroke="#603601"></path><path d="M79.2 542L131.3 515L135.2 500Z" fill="#213f17" stroke="#603601"></path><path d="M135.2 500L131.3 515L179.4 542Z" fill="#2e4e18" stroke="#603601"></path><path d="M169.3 588L236.5 575L179.4 542Z" fill="#2e4e18" stroke="#603601"></path><path d="M179.4 542L236.5 575L218.4 518Z" fill="#1d3a16" stroke="#603601"></path><path d="M213.5 329L169.4 341L224.5 412Z" fill="#335218" stroke="#603601"></path><path d="M161.4 397L99.2 406L160.4 404Z" fill="#2e4e18" stroke="#603601"></path><path d="M316.5 562L247.5 478L218.4 518Z" fill="#294917" stroke="#603601"></path><path d="M364.6 505L365.6 419L320.5 465Z" fill="#122c13" stroke="#603601"></path><path d="M320.5 465L365.6 419L293.5 366Z" fill="#193615" stroke="#603601"></path><path d="M236.5 575L316.5 562L218.4 518Z" fill="#193615" stroke="#603601"></path><path d="M356.6 558L364.6 505L331.6 541Z" fill="#122c13" stroke="#603601"></path><path d="M331.6 541L364.6 505L320.5 465Z" fill="#294917" stroke="#603601"></path><path d="M326.5 321L308.5 325L293.5 366Z" fill="#1d3a16" stroke="#603601"></path><path d="M293.5 366L259.5 291L213.5 329Z" fill="#3e5c17" stroke="#603601"></path><path d="M119.3 363L99.2 406L161.4 397Z" fill="#1d3a16" stroke="#603601"></path><path d="M79.2 542L114.3 540L131.3 515Z" fill="#335218" stroke="#603601"></path><path d="M188.4 311L145.3 336L169.4 341Z" fill="#395717" stroke="#603601"></path><path d="M169.4 341L145.3 336L161.4 397Z" fill="#213f17" stroke="#603601"></path><path d="M145.3 336L119.3 363L161.4 397Z" fill="#2e4e18" stroke="#603601"></path><path d="M400.7 493L378.7 409L365.6 419Z" fill="#122c13" stroke="#603601"></path><path d="M365.6 419L378.6 391L293.5 366Z" fill="#2e4e18" stroke="#603601"></path><path d="M213.5 329L188.4 311L169.4 341Z" fill="#2e4e18" stroke="#603601"></path><path d="M217.5 267L188.4 311L213.5 329Z" fill="#122c13" stroke="#603601"></path><path d="M79.2 542L135.2 500L131.3 476Z" fill="#1d3a16" stroke="#603601"></path><path d="M131.3 515L114.3 540L179.4 542Z" fill="#193615" stroke="#603601"></path><path d="M378.7 409L378.6 391L365.6 419Z" fill="#2e4e18" stroke="#603601"></path><path d="M163.4 588L169.3 588L179.4 542Z" fill="#3e5c17" stroke="#603601"></path><path d="M236.5 575L296.5 598L316.5 562Z" fill="#395717" stroke="#603601"></path><path d="M111.2 556L163.4 588L179.4 542Z" fill="#2e4e18" stroke="#603601"></path><path d="M365.7 335L326.5 321L293.5 366Z" fill="#213f17" stroke="#603601"></path><path d="M308.5 325L259.5 291L293.5 366Z" fill="#395717" stroke="#603601"></path><path d="M296.5 601L296.5 598L236.5 575Z" fill="#294917" stroke="#603601"></path><path d="M316.5 562L356.6 558L331.6 541Z" fill="#2e4e18" stroke="#603601"></path><path d="M296.5 601L263.5 658L305.6 629Z" fill="#213f17" stroke="#603601"></path><path d="M75.2 409L83.1 412L99.2 406Z" fill="#3e5c17" stroke="#603601"></path><path d="M99.2 406L83.1 412L131.3 476Z" fill="#1d3a16" stroke="#603601"></path><path d="M296.5 598L356.6 558L316.5 562Z" fill="#2e4e18" stroke="#603601"></path><path d="M326.5 321L259.5 291L308.5 325Z" fill="#395717" stroke="#603601"></path><path d="M296.5 601L236.5 575L263.5 658Z" fill="#153114" stroke="#603601"></path><path d="M296.5 598L362.6 637L356.6 558Z" fill="#335218" stroke="#603601"></path><path d="M79.2 542L111.2 556L114.3 540Z" fill="#122c13" stroke="#603601"></path><path d="M114.3 540L111.2 556L179.4 542Z" fill="#193615" stroke="#603601"></path><path d="M82.2 369L75.2 409L99.2 406Z" fill="#1d3a16" stroke="#603601"></path><path d="M51.1 464L79.2 542L131.3 476Z" fill="#294917" stroke="#603601"></path><path d="M405.8 530L400.7 493L364.6 505Z" fill="#335218" stroke="#603601"></path><path d="M364.6 505L400.7 493L365.6 419Z" fill="#153114" stroke="#603601"></path><path d="M378.7 409L414.8 394L378.6 391Z" fill="#254417" stroke="#603601"></path><path d="M378.6 391L365.7 335L293.5 366Z" fill="#153114" stroke="#603601"></path><path d="M270.5 225L217.5 267L259.5 291Z" fill="#335218" stroke="#603601"></path><path d="M109.2 275L82.2 369L119.3 363Z" fill="#3e5c17" stroke="#603601"></path><path d="M119.3 363L82.2 369L99.2 406Z" fill="#122c13" stroke="#603601"></path><path d="M109.2 275L119.3 363L145.3 336Z" fill="#294917" stroke="#603601"></path><path d="M416.7 374L380.6 344L378.6 391Z" fill="#3e5c17" stroke="#603601"></path><path d="M378.6 391L380.6 344L365.7 335Z" fill="#213f17" stroke="#603601"></path><path d="M51.1 464L131.3 476L83.1 412Z" fill="#2e4e18" stroke="#603601"></path><path d="M123.2 625L190.4 641L163.4 588Z" fill="#254417" stroke="#603601"></path><path d="M270.5 225L259.5 291L326.5 321Z" fill="#395717" stroke="#603601"></path><path d="M259.5 291L217.5 267L213.5 329Z" fill="#3e5c17" stroke="#603601"></path><path d="M188.4 311L135.3 278L145.3 336Z" fill="#213f17" stroke="#603601"></path><path d="M406.7 564L405.8 530L356.6 558Z" fill="#122c13" stroke="#603601"></path><path d="M356.6 558L405.8 530L364.6 505Z" fill="#193615" stroke="#603601"></path><path d="M442.8 422L414.8 394L378.7 409Z" fill="#122c13" stroke="#603601"></path><path d="M424.8 374L414.8 394L442.8 422Z" fill="#2e4e18" stroke="#603601"></path><path d="M0 445L51.1 464L75.2 409Z" fill="#193615" stroke="#603601"></path><path d="M75.2 409L51.1 464L83.1 412Z" fill="#153114" stroke="#603601"></path><path d="M190.4 641L236.5 575L169.3 588Z" fill="#395717" stroke="#603601"></path><path d="M296.5 601L362.6 637L296.5 598Z" fill="#2e4e18" stroke="#603601"></path><path d="M51.1 464L69.1 547L79.2 542Z" fill="#395717" stroke="#603601"></path><path d="M79.2 542L69.1 547L111.2 556Z" fill="#153114" stroke="#603601"></path><path d="M424.8 374L416.7 374L414.8 394Z" fill="#395717" stroke="#603601"></path><path d="M414.8 394L416.7 374L378.6 391Z" fill="#254417" stroke="#603601"></path><path d="M123.2 625L163.4 588L111.2 556Z" fill="#254417" stroke="#603601"></path><path d="M163.4 588L190.4 641L169.3 588Z" fill="#294917" stroke="#603601"></path><path d="M144.3 263L135.3 278L188.4 311Z" fill="#335218" stroke="#603601"></path><path d="M442.8 422L378.7 409L400.7 493Z" fill="#193615" stroke="#603601"></path><path d="M416.7 374L391.7 310L380.6 344Z" fill="#254417" stroke="#603601"></path><path d="M388.7 601L406.7 564L356.6 558Z" fill="#294917" stroke="#603601"></path><path d="M446.8 479L442.8 422L400.7 493Z" fill="#335218" stroke="#603601"></path><path d="M446.8 479L400.7 493L451.9 519Z" fill="#1d3a16" stroke="#603601"></path><path d="M423.7 543L423.8 542L405.8 530Z" fill="#213f17" stroke="#603601"></path><path d="M406.7 564L423.7 543L405.8 530Z" fill="#153114" stroke="#603601"></path><path d="M451.9 519L400.7 493L405.8 530Z" fill="#213f17" stroke="#603601"></path><path d="M69.1 547L123.2 625L111.2 556Z" fill="#3e5c17" stroke="#603601"></path><path d="M424.8 374L391.7 310L416.7 374Z" fill="#254417" stroke="#603601"></path><path d="M380.6 344L391.7 310L365.7 335Z" fill="#193615" stroke="#603601"></path><path d="M365.7 335L391.7 310L326.5 321Z" fill="#254417" stroke="#603601"></path><path d="M190.4 641L263.5 658L236.5 575Z" fill="#193615" stroke="#603601"></path><path d="M362.6 637L388.7 601L356.6 558Z" fill="#122c13" stroke="#603601"></path><path d="M217.5 267L144.3 263L188.4 311Z" fill="#213f17" stroke="#603601"></path><path d="M451.9 519L405.8 530L423.8 542Z" fill="#193615" stroke="#603601"></path><path d="M406.7 564L468.9 551L423.7 543Z" fill="#213f17" stroke="#603601"></path><path d="M362.6 637L296.5 601L305.6 629Z" fill="#213f17" stroke="#603601"></path><path d="M144.3 263L109.2 275L135.3 278Z" fill="#395717" stroke="#603601"></path><path d="M135.3 278L109.2 275L145.3 336Z" fill="#122c13" stroke="#603601"></path><path d="M82.2 369L42.1 354L75.2 409Z" fill="#3e5c17" stroke="#603601"></path><path d="M109.2 275L42.1 354L82.2 369Z" fill="#395717" stroke="#603601"></path><path d="M123.2 625L178.3 663L190.4 641Z" fill="#213f17" stroke="#603601"></path><path d="M190.4 641L209.4 698L263.5 658Z" fill="#335218" stroke="#603601"></path><path d="M398.7 653L407.8 594L388.7 601Z" fill="#395717" stroke="#603601"></path><path d="M388.7 601L407.8 594L406.7 564Z" fill="#335218" stroke="#603601"></path><path d="M468.9 551L451.9 519L423.8 542Z" fill="#1d3a16" stroke="#603601"></path><path d="M260.5 707L275.5 670L263.5 658Z" fill="#335218" stroke="#603601"></path><path d="M263.5 658L275.5 670L305.6 629Z" fill="#294917" stroke="#603601"></path><path d="M335.6 686L362.6 637L305.6 629Z" fill="#254417" stroke="#603601"></path><path d="M468.9 551L423.8 542L423.7 543Z" fill="#193615" stroke="#603601"></path><path d="M492.9 447L480.9 421L442.8 422Z" fill="#1d3a16" stroke="#603601"></path><path d="M51.1 464L41.1 561L69.1 547Z" fill="#3e5c17" stroke="#603601"></path><path d="M69.1 547L35.1 623L123.2 625Z" fill="#3e5c17" stroke="#603601"></path><path d="M0 550L41.1 561L51.1 464Z" fill="#1d3a16" stroke="#603601"></path><path d="M349.6 216L270.5 225L326.5 321Z" fill="#2e4e18" stroke="#603601"></path><path d="M217.5 267L173.4 199L144.3 263Z" fill="#335218" stroke="#603601"></path><path d="M416.7 265L379.6 268L391.7 310Z" fill="#395717" stroke="#603601"></path><path d="M391.7 310L379.6 268L326.5 321Z" fill="#193615" stroke="#603601"></path><path d="M26.1 323L16.1 366L42.1 354Z" fill="#2e4e18" stroke="#603601"></path><path d="M42.1 354L16.1 366L75.2 409Z" fill="#335218" stroke="#603601"></path><path d="M0 390L0 445L75.2 409Z" fill="#1d3a16" stroke="#603601"></path><path d="M0 445L0 466L51.1 464Z" fill="#2e4e18" stroke="#603601"></path><path d="M283.5 711L305.5 681L275.5 670Z" fill="#254417" stroke="#603601"></path><path d="M275.5 670L305.5 681L305.6 629Z" fill="#153114" stroke="#603601"></path><path d="M270.5 225L221.4 207L217.5 267Z" fill="#193615" stroke="#603601"></path><path d="M144.3 263L78.2 253L109.2 275Z" fill="#193615" stroke="#603601"></path><path d="M16.1 366L0 390L75.2 409Z" fill="#1d3a16" stroke="#603601"></path><path d="M492.9 447L442.8 422L446.8 479Z" fill="#2e4e18" stroke="#603601"></path><path d="M442.8 422L480.9 421L424.8 374Z" fill="#122c13" stroke="#603601"></path><path d="M466.9 261L416.7 265L391.7 310Z" fill="#395717" stroke="#603601"></path><path d="M109.2 275L26.1 323L42.1 354Z" fill="#153114" stroke="#603601"></path><path d="M16.1 366L0 357L0 390Z" fill="#3e5c17" stroke="#603601"></path><path d="M78.2 253L26.1 323L109.2 275Z" fill="#3e5c17" stroke="#603601"></path><path d="M214.4 708L209.4 698L171.3 742Z" fill="#1d3a16" stroke="#603601"></path><path d="M178.3 663L209.4 698L190.4 641Z" fill="#2e4e18" stroke="#603601"></path><path d="M209.4 698L178.3 663L171.3 742Z" fill="#335218" stroke="#603601"></path><path d="M511.9 596L468.9 551L484.9 646Z" fill="#395717" stroke="#603601"></path><path d="M407.8 594L468.9 551L406.7 564Z" fill="#193615" stroke="#603601"></path><path d="M498.9 496L492.9 447L446.8 479Z" fill="#122c13" stroke="#603601"></path><path d="M70.2 206L78.2 253L144.3 263Z" fill="#2e4e18" stroke="#603601"></path><path d="M305.5 681L335.6 686L305.6 629Z" fill="#254417" stroke="#603601"></path><path d="M362.6 637L398.7 653L388.7 601Z" fill="#294917" stroke="#603601"></path><path d="M283.5 711L335.6 686L305.5 681Z" fill="#193615" stroke="#603601"></path><path d="M0 269L0 357L26.1 323Z" fill="#1d3a16" stroke="#603601"></path><path d="M26.1 323L0 357L16.1 366Z" fill="#213f17" stroke="#603601"></path><path d="M498.9 496L446.8 479L451.9 519Z" fill="#254417" stroke="#603601"></path><path d="M209.4 698L260.5 707L263.5 658Z" fill="#3e5c17" stroke="#603601"></path><path d="M0 466L0 550L51.1 464Z" fill="#254417" stroke="#603601"></path><path d="M41.1 561L35.1 623L69.1 547Z" fill="#193615" stroke="#603601"></path><path d="M426.8 257L416.7 265L466.9 261Z" fill="#213f17" stroke="#603601"></path><path d="M379.6 268L349.6 216L326.5 321Z" fill="#2e4e18" stroke="#603601"></path><path d="M270.5 225L264.5 159L221.4 207Z" fill="#3e5c17" stroke="#603601"></path><path d="M391.7 310L424.8 374L466.9 261Z" fill="#193615" stroke="#603601"></path><path d="M63.1 689L178.3 663L123.2 625Z" fill="#153114" stroke="#603601"></path><path d="M209.4 698L214.4 708L260.5 707Z" fill="#153114" stroke="#603601"></path><path d="M335.6 686L398.7 653L362.6 637Z" fill="#153114" stroke="#603601"></path><path d="M221.4 207L179.3 198L217.5 267Z" fill="#294917" stroke="#603601"></path><path d="M179.3 198L173.4 199L217.5 267Z" fill="#395717" stroke="#603601"></path><path d="M407.7 227L349.6 216L379.6 268Z" fill="#153114" stroke="#603601"></path><path d="M206.5 158L163.3 167L179.3 198Z" fill="#3e5c17" stroke="#603601"></path><path d="M259.5 743L283.5 711L260.5 707Z" fill="#193615" stroke="#603601"></path><path d="M260.5 707L283.5 711L275.5 670Z" fill="#395717" stroke="#603601"></path><path d="M468.9 551L498.9 496L451.9 519Z" fill="#213f17" stroke="#603601"></path><path d="M0 605L35.1 623L41.1 561Z" fill="#254417" stroke="#603601"></path><path d="M363.7 718L405.8 662L335.6 686Z" fill="#2e4e18" stroke="#603601"></path><path d="M335.6 686L405.8 662L398.7 653Z" fill="#395717" stroke="#603601"></path><path d="M398.7 653L405.8 662L407.8 594Z" fill="#395717" stroke="#603601"></path><path d="M466.9 261L424.8 374L514.9 339Z" fill="#1d3a16" stroke="#603601"></path><path d="M416.7 265L407.7 227L379.6 268Z" fill="#193615" stroke="#603601"></path><path d="M426.8 257L407.7 227L416.7 265Z" fill="#294917" stroke="#603601"></path><path d="M0 550L0 605L41.1 561Z" fill="#335218" stroke="#603601"></path><path d="M78.2 253L13.1 270L26.1 323Z" fill="#193615" stroke="#603601"></path><path d="M70.2 206L13.1 270L78.2 253Z" fill="#122c13" stroke="#603601"></path><path d="M273.5 158L270.5 225L289.5 150Z" fill="#1d3a16" stroke="#603601"></path><path d="M273.5 158L264.5 159L270.5 225Z" fill="#3e5c17" stroke="#603601"></path><path d="M179.3 198L163.3 167L173.4 199Z" fill="#153114" stroke="#603601"></path><path d="M206.5 158L179.3 198L221.4 207Z" fill="#193615" stroke="#603601"></path><path d="M173.4 199L70.2 206L144.3 263Z" fill="#335218" stroke="#603601"></path><path d="M214.4 708L259.5 743L260.5 707Z" fill="#213f17" stroke="#603601"></path><path d="M283.5 711L363.7 718L335.6 686Z" fill="#193615" stroke="#603601"></path><path d="M224.4 768L259.5 743L214.4 708Z" fill="#335218" stroke="#603601"></path><path d="M61.2 687L123.2 625L35.1 623Z" fill="#122c13" stroke="#603601"></path><path d="M264.5 159L206.5 158L221.4 207Z" fill="#2e4e18" stroke="#603601"></path><path d="M289.5 150L270.5 225L349.6 216Z" fill="#2e4e18" stroke="#603601"></path><path d="M221.4 125L187.4 134L206.5 158Z" fill="#254417" stroke="#603601"></path><path d="M0 674L61.2 687L35.1 623Z" fill="#2e4e18" stroke="#603601"></path><path d="M61.2 687L63.1 689L123.2 625Z" fill="#122c13" stroke="#603601"></path><path d="M339.6 784L363.7 718L283.5 711Z" fill="#213f17" stroke="#603601"></path><path d="M163.3 167L70.2 206L173.4 199Z" fill="#2e4e18" stroke="#603601"></path><path d="M514.9 339L424.8 374L480.9 421Z" fill="#213f17" stroke="#603601"></path><path d="M426.8 257L450.8 204L407.7 227Z" fill="#395717" stroke="#603601"></path><path d="M123.2 746L171.3 742L178.3 663Z" fill="#335218" stroke="#603601"></path><path d="M0 205L0 269L13.1 270Z" fill="#122c13" stroke="#603601"></path><path d="M13.1 270L0 269L26.1 323Z" fill="#395717" stroke="#603601"></path><path d="M540 401L514.9 339L480.9 421Z" fill="#122c13" stroke="#603601"></path><path d="M540 415L480.9 421L492.9 447Z" fill="#395717" stroke="#603601"></path><path d="M408.7 168L372.6 183L407.7 227Z" fill="#213f17" stroke="#603601"></path><path d="M407.7 227L372.6 183L349.6 216Z" fill="#1d3a16" stroke="#603601"></path><path d="M0 605L0 634L35.1 623Z" fill="#395717" stroke="#603601"></path><path d="M61.2 687L51.1 716L63.1 689Z" fill="#254417" stroke="#603601"></path><path d="M524.9 220L461.8 250L466.9 261Z" fill="#122c13" stroke="#603601"></path><path d="M466.9 261L461.8 250L426.8 257Z" fill="#193615" stroke="#603601"></path><path d="M540 498L540 448L498.9 496Z" fill="#193615" stroke="#603601"></path><path d="M498.9 496L540 448L492.9 447Z" fill="#254417" stroke="#603601"></path><path d="M540 498L498.9 496L540 558Z" fill="#213f17" stroke="#603601"></path><path d="M540 448L540 415L492.9 447Z" fill="#153114" stroke="#603601"></path><path d="M372.6 183L289.5 150L349.6 216Z" fill="#395717" stroke="#603601"></path><path d="M273.5 158L249.5 125L264.5 159Z" fill="#395717" stroke="#603601"></path><path d="M468.9 551L407.8 594L484.9 646Z" fill="#122c13" stroke="#603601"></path><path d="M540 558L498.9 496L468.9 551Z" fill="#254417" stroke="#603601"></path><path d="M540 415L540 401L480.9 421Z" fill="#193615" stroke="#603601"></path><path d="M484.9 646L407.8 594L405.8 662Z" fill="#335218" stroke="#603601"></path><path d="M516.9 722L484.9 646L405.8 662Z" fill="#294917" stroke="#603601"></path><path d="M540 306L500.9 277L514.9 339Z" fill="#213f17" stroke="#603601"></path><path d="M514.9 339L500.9 277L466.9 261Z" fill="#213f17" stroke="#603601"></path><path d="M461.8 250L450.8 204L426.8 257Z" fill="#395717" stroke="#603601"></path><path d="M51.1 716L123.2 746L63.1 689Z" fill="#294917" stroke="#603601"></path><path d="M63.1 689L123.2 746L178.3 663Z" fill="#3e5c17" stroke="#603601"></path><path d="M171.3 742L224.4 768L214.4 708Z" fill="#1d3a16" stroke="#603601"></path><path d="M183.4 781L224.4 768L171.3 742Z" fill="#153114" stroke="#603601"></path><path d="M259.5 743L339.6 784L283.5 711Z" fill="#2e4e18" stroke="#603601"></path><path d="M206.5 158L187.4 134L163.3 167Z" fill="#2e4e18" stroke="#603601"></path><path d="M51.1 140L43.1 168L70.2 206Z" fill="#1d3a16" stroke="#603601"></path><path d="M249.5 125L206.5 158L264.5 159Z" fill="#254417" stroke="#603601"></path><path d="M540 642L540 558L511.9 596Z" fill="#254417" stroke="#603601"></path><path d="M511.9 596L540 558L468.9 551Z" fill="#294917" stroke="#603601"></path><path d="M0 693L51.1 716L61.2 687Z" fill="#153114" stroke="#603601"></path><path d="M284.5 67L249.5 125L289.5 150Z" fill="#3e5c17" stroke="#603601"></path><path d="M289.5 150L249.5 125L273.5 158Z" fill="#153114" stroke="#603601"></path><path d="M249.5 125L221.4 125L206.5 158Z" fill="#294917" stroke="#603601"></path><path d="M0 634L0 674L35.1 623Z" fill="#213f17" stroke="#603601"></path><path d="M524.9 220L450.8 204L461.8 250Z" fill="#3e5c17" stroke="#603601"></path><path d="M372.6 183L330.6 126L289.5 150Z" fill="#2e4e18" stroke="#603601"></path><path d="M450.8 204L408.7 168L407.7 227Z" fill="#395717" stroke="#603601"></path><path d="M123.2 746L153.3 772L171.3 742Z" fill="#2e4e18" stroke="#603601"></path><path d="M124.3 781L153.3 772L123.2 746Z" fill="#3e5c17" stroke="#603601"></path><path d="M153.3 772L183.4 781L171.3 742Z" fill="#193615" stroke="#603601"></path><path d="M540 401L540 306L514.9 339Z" fill="#254417" stroke="#603601"></path><path d="M500.9 277L524.9 220L466.9 261Z" fill="#1d3a16" stroke="#603601"></path><path d="M408.7 168L330.6 126L372.6 183Z" fill="#122c13" stroke="#603601"></path><path d="M0 674L0 693L61.2 687Z" fill="#254417" stroke="#603601"></path><path d="M109.2 792L124.3 781L123.2 746Z" fill="#3e5c17" stroke="#603601"></path><path d="M43.1 168L0 205L70.2 206Z" fill="#294917" stroke="#603601"></path><path d="M70.2 206L0 205L13.1 270Z" fill="#395717" stroke="#603601"></path><path d="M120.2 123L70.2 206L163.3 167Z" fill="#213f17" stroke="#603601"></path><path d="M120.2 123L163.3 167L187.4 134Z" fill="#294917" stroke="#603601"></path><path d="M229.5 813L240.5 798L224.4 768Z" fill="#122c13" stroke="#603601"></path><path d="M224.4 768L240.5 798L259.5 743Z" fill="#2e4e18" stroke="#603601"></path><path d="M363.7 718L411.8 758L405.8 662Z" fill="#153114" stroke="#603601"></path><path d="M183.3 78L120.2 123L187.4 134Z" fill="#395717" stroke="#603601"></path><path d="M87.1 114L120.2 123L125.3 63Z" fill="#3e5c17" stroke="#603601"></path><path d="M187.4 134L221.4 125L183.3 78Z" fill="#153114" stroke="#603601"></path><path d="M305.5 819L339.6 784L259.5 743Z" fill="#2e4e18" stroke="#603601"></path><path d="M66.1 770L123.2 746L51.1 716Z" fill="#122c13" stroke="#603601"></path><path d="M153.3 772L131.3 861L183.4 781Z" fill="#335218" stroke="#603601"></path><path d="M183.4 781L229.5 813L224.4 768Z" fill="#3e5c17" stroke="#603601"></path><path d="M363.6 797L411.8 758L363.7 718Z" fill="#254417" stroke="#603601"></path><path d="M540 306L540 262L500.9 277Z" fill="#193615" stroke="#603601"></path><path d="M450.8 204L436.8 125L408.7 168Z" fill="#153114" stroke="#603601"></path><path d="M540 649L540 642L484.9 646Z" fill="#193615" stroke="#603601"></path><path d="M484.9 646L540 642L511.9 596Z" fill="#153114" stroke="#603601"></path><path d="M540 262L540 254L500.9 277Z" fill="#2e4e18" stroke="#603601"></path><path d="M401.7 803L420.8 762L411.8 758Z" fill="#254417" stroke="#603601"></path><path d="M411.8 758L420.8 762L405.8 662Z" fill="#294917" stroke="#603601"></path><path d="M540 682L540 649L484.9 646Z" fill="#254417" stroke="#603601"></path><path d="M120.2 123L51.1 140L70.2 206Z" fill="#294917" stroke="#603601"></path><path d="M43.1 168L0 177L0 205Z" fill="#395717" stroke="#603601"></path><path d="M0 175L0 177L43.1 168Z" fill="#3e5c17" stroke="#603601"></path><path d="M0 778L66.1 770L51.1 716Z" fill="#2e4e18" stroke="#603601"></path><path d="M131.3 861L153.3 772L124.3 781Z" fill="#2e4e18" stroke="#603601"></path><path d="M131.3 861L229.5 813L183.4 781Z" fill="#1d3a16" stroke="#603601"></path><path d="M240.5 798L305.5 819L259.5 743Z" fill="#1d3a16" stroke="#603601"></path><path d="M0 132L0 175L43.1 168Z" fill="#335218" stroke="#603601"></path><path d="M66.1 770L109.2 792L123.2 746Z" fill="#153114" stroke="#603601"></path><path d="M540 254L524.9 220L500.9 277Z" fill="#335218" stroke="#603601"></path><path d="M311.6 74L289.5 150L330.6 126Z" fill="#2e4e18" stroke="#603601"></path><path d="M339.6 784L363.6 797L363.7 718Z" fill="#335218" stroke="#603601"></path><path d="M305.5 819L363.6 797L339.6 784Z" fill="#254417" stroke="#603601"></path><path d="M120.2 123L87.1 114L51.1 140Z" fill="#213f17" stroke="#603601"></path><path d="M51.1 140L0 132L43.1 168Z" fill="#1d3a16" stroke="#603601"></path><path d="M183.3 78L221.4 125L245.5 70Z" fill="#1d3a16" stroke="#603601"></path><path d="M229.5 813L305.5 819L240.5 798Z" fill="#395717" stroke="#603601"></path><path d="M245.5 70L221.4 125L249.5 125Z" fill="#3e5c17" stroke="#603601"></path><path d="M407.7 76L330.6 126L408.7 168Z" fill="#213f17" stroke="#603601"></path><path d="M284.5 67L245.5 70L249.5 125Z" fill="#1d3a16" stroke="#603601"></path><path d="M516.9 722L540 682L484.9 646Z" fill="#294917" stroke="#603601"></path><path d="M460.8 120L436.8 125L450.8 204Z" fill="#254417" stroke="#603601"></path><path d="M318.6 74L311.6 74L330.6 126Z" fill="#395717" stroke="#603601"></path><path d="M407.7 76L318.6 74L330.6 126Z" fill="#294917" stroke="#603601"></path><path d="M311.6 74L284.5 67L289.5 150Z" fill="#122c13" stroke="#603601"></path><path d="M272.5 30L284.5 67L311.6 74Z" fill="#3e5c17" stroke="#603601"></path><path d="M84.1 45L60.2 105L87.1 114Z" fill="#122c13" stroke="#603601"></path><path d="M87.1 114L60.2 105L51.1 140Z" fill="#122c13" stroke="#603601"></path><path d="M363.6 797L401.7 803L411.8 758Z" fill="#1d3a16" stroke="#603601"></path><path d="M420.8 762L516.9 722L405.8 662Z" fill="#395717" stroke="#603601"></path><path d="M422.7 833L401.7 803L369.7 867Z" fill="#153114" stroke="#603601"></path><path d="M508.9 747L516.9 722L420.8 762Z" fill="#122c13" stroke="#603601"></path><path d="M0 778L63.2 805L66.1 770Z" fill="#1d3a16" stroke="#603601"></path><path d="M66.1 770L63.2 805L109.2 792Z" fill="#193615" stroke="#603601"></path><path d="M109.2 792L131.3 861L124.3 781Z" fill="#153114" stroke="#603601"></path><path d="M229.5 813L267.5 876L305.5 819Z" fill="#213f17" stroke="#603601"></path><path d="M540 254L540 194L524.9 220Z" fill="#2e4e18" stroke="#603601"></path><path d="M524.9 220L540 194L450.8 204Z" fill="#213f17" stroke="#603601"></path><path d="M60.2 105L0 132L51.1 140Z" fill="#3e5c17" stroke="#603601"></path><path d="M496.9 127L460.8 120L450.8 204Z" fill="#294917" stroke="#603601"></path><path d="M436.8 125L407.7 76L408.7 168Z" fill="#335218" stroke="#603601"></path><path d="M434.8 806L508.9 747L420.8 762Z" fill="#2e4e18" stroke="#603601"></path><path d="M516.9 722L540 782L540 682Z" fill="#213f17" stroke="#603601"></path><path d="M245.5 70L201.4 50L183.3 78Z" fill="#254417" stroke="#603601"></path><path d="M183.3 78L125.3 63L120.2 123Z" fill="#2e4e18" stroke="#603601"></path><path d="M272.5 30L201.4 50L245.5 70Z" fill="#2e4e18" stroke="#603601"></path><path d="M201.4 50L125.3 63L183.3 78Z" fill="#1d3a16" stroke="#603601"></path><path d="M60.2 105L0 54L0 132Z" fill="#193615" stroke="#603601"></path><path d="M0 693L0 778L51.1 716Z" fill="#294917" stroke="#603601"></path><path d="M422.7 833L434.8 806L401.7 803Z" fill="#1d3a16" stroke="#603601"></path><path d="M401.7 803L434.8 806L420.8 762Z" fill="#294917" stroke="#603601"></path><path d="M455.9 71L407.7 76L436.8 125Z" fill="#153114" stroke="#603601"></path><path d="M327.5 0L272.5 30L311.6 74Z" fill="#335218" stroke="#603601"></path><path d="M284.5 67L272.5 30L245.5 70Z" fill="#153114" stroke="#603601"></path><path d="M540 194L496.9 127L450.8 204Z" fill="#2e4e18" stroke="#603601"></path><path d="M460.8 120L455.9 71L436.8 125Z" fill="#153114" stroke="#603601"></path><path d="M55.1 866L77.1 839L63.2 805Z" fill="#3e5c17" stroke="#603601"></path><path d="M63.2 805L77.1 839L109.2 792Z" fill="#193615" stroke="#603601"></path><path d="M327.5 0L311.6 74L318.6 74Z" fill="#193615" stroke="#603601"></path><path d="M118.2 20L84.1 45L125.3 63Z" fill="#294917" stroke="#603601"></path><path d="M77.1 839L131.3 861L109.2 792Z" fill="#1d3a16" stroke="#603601"></path><path d="M369.7 867L401.7 803L363.6 797Z" fill="#254417" stroke="#603601"></path><path d="M369.7 867L363.6 797L305.5 819Z" fill="#153114" stroke="#603601"></path><path d="M540 792L540 782L507.9 820Z" fill="#395717" stroke="#603601"></path><path d="M217.4 889L267.5 876L229.5 813Z" fill="#2e4e18" stroke="#603601"></path><path d="M517.9 81L455.9 71L460.8 120Z" fill="#2e4e18" stroke="#603601"></path><path d="M540 194L540 140L496.9 127Z" fill="#294917" stroke="#603601"></path><path d="M118.2 20L125.3 63L153.3 0Z" fill="#254417" stroke="#603601"></path><path d="M125.3 63L84.1 45L87.1 114Z" fill="#213f17" stroke="#603601"></path><path d="M295.5 893L369.7 867L305.5 819Z" fill="#153114" stroke="#603601"></path><path d="M517.9 81L460.8 120L496.9 127Z" fill="#395717" stroke="#603601"></path><path d="M365.6 0L327.5 0L318.6 74Z" fill="#395717" stroke="#603601"></path><path d="M194.4 895L217.4 889L229.5 813Z" fill="#294917" stroke="#603601"></path><path d="M267.5 876L295.5 893L305.5 819Z" fill="#122c13" stroke="#603601"></path><path d="M270.5 945L295.5 893L267.5 876Z" fill="#294917" stroke="#603601"></path><path d="M131.3 861L194.4 895L229.5 813Z" fill="#395717" stroke="#603601"></path><path d="M270.5 945L325.5 906L295.5 893Z" fill="#294917" stroke="#603601"></path><path d="M122.2 892L194.4 895L131.3 861Z" fill="#2e4e18" stroke="#603601"></path><path d="M153.3 0L125.3 63L201.4 50Z" fill="#395717" stroke="#603601"></path><path d="M508.9 747L434.8 806L507.9 820Z" fill="#153114" stroke="#603601"></path><path d="M540 782L508.9 747L507.9 820Z" fill="#254417" stroke="#603601"></path><path d="M508.9 747L540 782L516.9 722Z" fill="#122c13" stroke="#603601"></path><path d="M272.5 30L208.5 0L201.4 50Z" fill="#395717" stroke="#603601"></path><path d="M327.5 0L208.5 0L272.5 30Z" fill="#153114" stroke="#603601"></path><path d="M0 778L0 835L63.2 805Z" fill="#122c13" stroke="#603601"></path><path d="M77.1 839L122.2 892L131.3 861Z" fill="#1d3a16" stroke="#603601"></path><path d="M208.5 0L197.4 0L201.4 50Z" fill="#122c13" stroke="#603601"></path><path d="M0 835L55.1 866L63.2 805Z" fill="#1d3a16" stroke="#603601"></path><path d="M507.9 820L434.8 806L464.8 864Z" fill="#3e5c17" stroke="#603601"></path><path d="M55.1 866L122.2 892L77.1 839Z" fill="#294917" stroke="#603601"></path><path d="M464.8 864L434.8 806L422.7 833Z" fill="#3e5c17" stroke="#603601"></path><path d="M464.8 864L422.7 833L462.8 877Z" fill="#122c13" stroke="#603601"></path><path d="M197.4 0L153.3 0L201.4 50Z" fill="#294917" stroke="#603601"></path><path d="M365.6 0L318.6 74L407.7 76Z" fill="#395717" stroke="#603601"></path><path d="M325.5 906L369.7 867L295.5 893Z" fill="#213f17" stroke="#603601"></path><path d="M325.5 906L358.6 894L369.7 867Z" fill="#3e5c17" stroke="#603601"></path><path d="M19.1 0L0 54L84.1 45Z" fill="#153114" stroke="#603601"></path><path d="M84.1 45L0 54L60.2 105Z" fill="#294917" stroke="#603601"></path><path d="M82.2 0L84.1 45L118.2 20Z" fill="#254417" stroke="#603601"></path><path d="M270.5 945L267.5 876L217.4 889Z" fill="#1d3a16" stroke="#603601"></path><path d="M339.6 910L325.5 906L287.5 960Z" fill="#1d3a16" stroke="#603601"></path><path d="M540 140L517.9 81L496.9 127Z" fill="#213f17" stroke="#603601"></path><path d="M418.7 15L365.6 0L407.7 76Z" fill="#193615" stroke="#603601"></path><path d="M427.8 22L407.7 76L455.9 71Z" fill="#3e5c17" stroke="#603601"></path><path d="M524.9 0L427.8 22L455.9 71Z" fill="#153114" stroke="#603601"></path><path d="M55.1 866L114.2 904L122.2 892Z" fill="#395717" stroke="#603601"></path><path d="M122.2 892L156.3 928L194.4 895Z" fill="#1d3a16" stroke="#603601"></path><path d="M67.1 940L114.2 904L55.1 866Z" fill="#213f17" stroke="#603601"></path><path d="M270.5 945L217.4 889L194.4 895Z" fill="#2e4e18" stroke="#603601"></path><path d="M325.5 906L339.6 910L358.6 894Z" fill="#294917" stroke="#603601"></path><path d="M462.8 877L422.7 833L457.9 891Z" fill="#153114" stroke="#603601"></path><path d="M422.7 833L369.7 867L400.7 906Z" fill="#2e4e18" stroke="#603601"></path><path d="M507.9 820L540 830L540 792Z" fill="#153114" stroke="#603601"></path><path d="M403.8 0L418.7 15L422.7 0Z" fill="#294917" stroke="#603601"></path><path d="M427.8 22L418.7 15L407.7 76Z" fill="#3e5c17" stroke="#603601"></path><path d="M153.3 0L82.2 0L118.2 20Z" fill="#2e4e18" stroke="#603601"></path><path d="M422.7 0L418.7 15L427.8 22Z" fill="#2e4e18" stroke="#603601"></path><path d="M418.7 15L403.8 0L365.6 0Z" fill="#335218" stroke="#603601"></path><path d="M400.7 906L369.7 867L358.6 894Z" fill="#254417" stroke="#603601"></path><path d="M540 882L540 830L507.9 820Z" fill="#153114" stroke="#603601"></path><path d="M378.6 960L400.7 906L358.6 894Z" fill="#335218" stroke="#603601"></path><path d="M114.2 904L156.3 928L122.2 892Z" fill="#294917" stroke="#603601"></path><path d="M339.6 910L378.6 960L358.6 894Z" fill="#3e5c17" stroke="#603601"></path><path d="M540 882L507.9 820L464.8 864Z" fill="#395717" stroke="#603601"></path><path d="M524.9 0L422.7 0L427.8 22Z" fill="#3e5c17" stroke="#603601"></path><path d="M0 835L0 877L55.1 866Z" fill="#395717" stroke="#603601"></path><path d="M127.3 960L157.4 960L156.3 928Z" fill="#213f17" stroke="#603601"></path><path d="M400.7 906L457.9 891L422.7 833Z" fill="#213f17" stroke="#603601"></path><path d="M462.8 877L540 882L464.8 864Z" fill="#395717" stroke="#603601"></path><path d="M269.5 960L270.5 945L194.4 895Z" fill="#294917" stroke="#603601"></path><path d="M467.9 932L540 882L457.9 891Z" fill="#213f17" stroke="#603601"></path><path d="M540 140L540 58L517.9 81Z" fill="#2e4e18" stroke="#603601"></path><path d="M517.9 81L540 49L455.9 71Z" fill="#254417" stroke="#603601"></path><path d="M0 877L0 889L55.1 866Z" fill="#2e4e18" stroke="#603601"></path><path d="M82.2 0L19.1 0L84.1 45Z" fill="#254417" stroke="#603601"></path><path d="M540 58L540 49L517.9 81Z" fill="#395717" stroke="#603601"></path><path d="M19.1 0L0 0L0 54Z" fill="#294917" stroke="#603601"></path><path d="M157.4 960L269.5 960L194.4 895Z" fill="#294917" stroke="#603601"></path><path d="M270.5 945L287.5 960L325.5 906Z" fill="#2e4e18" stroke="#603601"></path><path d="M157.4 960L194.4 895L156.3 928Z" fill="#1d3a16" stroke="#603601"></path><path d="M269.5 960L287.5 960L270.5 945Z" fill="#2e4e18" stroke="#603601"></path><path d="M127.3 960L156.3 928L114.2 904Z" fill="#335218" stroke="#603601"></path><path d="M0 889L67.1 940L55.1 866Z" fill="#1d3a16" stroke="#603601"></path><path d="M101.2 960L127.3 960L114.2 904Z" fill="#2e4e18" stroke="#603601"></path><path d="M467.9 932L457.9 891L400.7 906Z" fill="#213f17" stroke="#603601"></path><path d="M457.9 891L540 882L462.8 877Z" fill="#1d3a16" stroke="#603601"></path><path d="M67.1 940L101.2 960L114.2 904Z" fill="#2e4e18" stroke="#603601"></path><path d="M287.5 960L378.6 960L339.6 910Z" fill="#335218" stroke="#603601"></path><path d="M406.8 960L467.9 932L400.7 906Z" fill="#153114" stroke="#603601"></path><path d="M540 49L524.9 0L455.9 71Z" fill="#2e4e18" stroke="#603601"></path><path d="M378.6 960L401.7 960L400.7 906Z" fill="#193615" stroke="#603601"></path><path d="M401.7 960L406.8 960L400.7 906Z" fill="#213f17" stroke="#603601"></path><path d="M0 960L52.1 960L67.1 940Z" fill="#2e4e18" stroke="#603601"></path><path d="M67.1 940L52.1 960L101.2 960Z" fill="#395717" stroke="#603601"></path><path d="M540 49L540 0L524.9 0Z" fill="#395717" stroke="#603601"></path><path d="M0 889L0 960L67.1 940Z" fill="#213f17" stroke="#603601"></path><path d="M406.8 960L482.9 960L467.9 932Z" fill="#122c13" stroke="#603601"></path><path d="M467.9 932L540 960L540 882Z" fill="#2e4e18" stroke="#603601"></path><path d="M482.9 960L540 960L467.9 932Z" fill="#335218" stroke="#603601"></path></g></svg>