<?xml version="1.0" standalone="no"?><svg xmlns="http://www.w3.org/2000/svg" viewBox="0 0 1440 320"><path fill="#5000ca" fill-opacity="1" d="M0,320L6.2,293.3C12.3,267,25,213,37,202.7C49.2,192,62,224,74,224C86.2,224,98,192,111,176C123.1,160,135,160,148,149.3C160,139,172,117,185,112C196.9,107,209,117,222,149.3C233.8,181,246,235,258,261.3C270.8,288,283,288,295,266.7C307.7,245,320,203,332,176C344.6,149,357,139,369,138.7C381.5,139,394,149,406,154.7C418.5,160,431,160,443,138.7C455.4,117,468,75,480,96C492.3,117,505,203,517,240C529.2,277,542,267,554,266.7C566.2,267,578,277,591,277.3C603.1,277,615,267,628,224C640,181,652,107,665,90.7C676.9,75,689,117,702,117.3C713.8,117,726,75,738,96C750.8,117,763,203,775,218.7C787.7,235,800,181,812,133.3C824.6,85,837,43,849,69.3C861.5,96,874,192,886,213.3C898.5,235,911,181,923,176C935.4,171,948,213,960,224C972.3,235,985,213,997,197.3C1009.2,181,1022,171,1034,181.3C1046.2,192,1058,224,1071,202.7C1083.1,181,1095,107,1108,80C1120,53,1132,75,1145,74.7C1156.9,75,1169,53,1182,69.3C1193.8,85,1206,139,1218,176C1230.8,213,1243,235,1255,234.7C1267.7,235,1280,213,1292,208C1304.6,203,1317,213,1329,202.7C1341.5,192,1354,160,1366,154.7C1378.5,149,1391,171,1403,192C1415.4,213,1428,235,1434,245.3L1440,256L1440,0L1433.8,0C1427.7,0,1415,0,1403,0C1390.8,0,1378,0,1366,0C1353.8,0,1342,0,1329,0C1316.9,0,1305,0,1292,0C1280,0,1268,0,1255,0C1243.1,0,1231,0,1218,0C1206.2,0,1194,0,1182,0C1169.2,0,1157,0,1145,0C1132.3,0,1120,0,1108,0C1095.4,0,1083,0,1071,0C1058.5,0,1046,0,1034,0C1021.5,0,1009,0,997,0C984.6,0,972,0,960,0C947.7,0,935,0,923,0C910.8,0,898,0,886,0C873.8,0,862,0,849,0C836.9,0,825,0,812,0C800,0,788,0,775,0C763.1,0,751,0,738,0C726.2,0,714,0,702,0C689.2,0,677,0,665,0C652.3,0,640,0,628,0C615.4,0,603,0,591,0C578.5,0,566,0,554,0C541.5,0,529,0,517,0C504.6,0,492,0,480,0C467.7,0,455,0,443,0C430.8,0,418,0,406,0C393.8,0,382,0,369,0C356.9,0,345,0,332,0C320,0,308,0,295,0C283.1,0,271,0,258,0C246.2,0,234,0,222,0C209.2,0,197,0,185,0C172.3,0,160,0,148,0C135.4,0,123,0,111,0C98.5,0,86,0,74,0C61.5,0,49,0,37,0C24.6,0,12,0,6,0L0,0Z"></path></svg>